<svg width="20" height="20" viewBox="0 0 20 20" fill="none" xmlns="http://www.w3.org/2000/svg">
<path fill-rule="evenodd" clip-rule="evenodd" d="M13.0871 8.04353C13.0871 10.829 10.829 13.0871 8.04353 13.0871C5.25807 13.0871 3 10.829 3 8.04353C3 5.25807 5.25807 3 8.04353 3C10.829 3 13.0871 5.25807 13.0871 8.04353ZM12.8607 14.4857C11.5179 15.4914 9.85027 16.0871 8.04353 16.0871C3.60121 16.0871 0 12.4859 0 8.04353C0 3.60121 3.60121 0 8.04353 0C12.4859 0 16.0871 3.60121 16.0871 8.04353C16.0871 9.85027 15.4914 11.5179 14.4857 12.8607L19.6634 18.0384C20.1121 18.4871 20.1121 19.2147 19.6634 19.6634C19.2147 20.1121 18.4871 20.1121 18.0384 19.6634L12.8607 14.4857Z" fill="#FFE001"/>
</svg>
